<svg xmlns="http://www.w3.org/2000/svg" viewBox="0 0 512 512">
  <defs>
    <linearGradient id="g" x1="0" y1="0" x2="1" y2="1">
      <stop offset="0" stop-color="#38bdf8"/>
      <stop offset="1" stop-color="#7c3aed"/>
    </linearGradient>
  </defs>
  <rect width="512" height="512" rx="112" fill="#0f172a"/>
  <path d="M112 172c0-24 20-44 44-44h74c14 0 27 7 35 18l19 26h72c24 0 44 20 44 44v124c0 24-20 44-44 44H156c-24 0-44-20-44-44V172Z" fill="url(#g)"/>
  <circle cx="256" cy="278" r="58" fill="#0f172a" opacity=".9"/>
  <path d="M256 210l18 50 50 18-50 18-18 50-18-50-50-18 50-18 18-50Z" fill="#fff"/>
</svg>
